<!-- Generated by IcoMoon.io -->
<svg version="1.1" xmlns="http://www.w3.org/2000/svg" width="640" height="640" viewBox="0 0 640 640">
<title></title>
<g id="icomoon-ignore">
</g>
<path d="M237.12 288l71.68 71.68-26.56 64-90.24-90.88-105.6 105.6-44.8-45.44 104.96-104.96-28.16-28.16c-16.96-16.96-32-41.6-41.6-67.84h70.4c4.8 8.96 10.56 16.96 16.32 22.4l28.48 28.8 28.16-28.16c19.2-19.84 35.84-60.16 35.84-87.040h-256v-64h160v-64h64v64h160v64h-64c0 43.84-23.68 100.8-54.4 131.84l-28.8 28.16zM360 544l-40 96h-64l160-384h64l160 384h-64l-40-96h-176zM386.56 480h122.88l-61.44-147.2-61.44 147.2z"></path>
</svg>
